<svg width="14" height="10" viewBox="0 0 14 10" fill="none" xmlns="http://www.w3.org/2000/svg">
<path d="M2.40382 9.5C1.80023 8.90905 1.32144 8.2075 0.994786 7.43538C0.668129 6.66327 0.5 5.83573 0.5 5C0.5 4.16427 0.668129 3.33673 0.994786 2.56461C1.32144 1.7925 1.80023 1.09095 2.40382 0.5M11.5962 0.5C12.1998 1.09095 12.6786 1.7925 13.0052 2.56461C13.3319 3.33673 13.5 4.16427 13.5 5C13.5 5.83573 13.3319 6.66327 13.0052 7.43538C12.6786 8.2075 12.1998 8.90905 11.5962 9.5M4.44624 7.50031C4.11082 7.172 3.84475 6.78221 3.66322 6.3532C3.48168 5.92419 3.38825 5.46437 3.38825 5C3.38825 4.53563 3.48168 4.07581 3.66322 3.6468C3.84475 3.21779 4.11082 2.828 4.44624 2.49969M9.55376 2.49969C9.88918 2.828 10.1553 3.21779 10.3368 3.6468C10.5183 4.07581 10.6118 4.53563 10.6118 5C10.6118 5.46437 10.5183 5.92419 10.3368 6.3532C10.1553 6.78221 9.88918 7.172 9.55376 7.50031M7.72222 5C7.72222 5.18753 7.64613 5.36739 7.51068 5.5C7.37524 5.6326 7.19154 5.7071 7 5.7071C6.80846 5.7071 6.62476 5.6326 6.48932 5.5C6.35387 5.36739 6.27778 5.18753 6.27778 5C6.27778 4.81246 6.35387 4.63261 6.48932 4.5C6.62476 4.3674 6.80846 4.2929 7 4.2929C7.19154 4.2929 7.37524 4.3674 7.51068 4.5C7.64613 4.63261 7.72222 4.81246 7.72222 5Z" stroke="black" stroke-linecap="round" stroke-linejoin="round"/>
</svg>
