<svg width="15" height="11" viewBox="0 0 15 11" fill="none" xmlns="http://www.w3.org/2000/svg">
<path d="M10.9496 10.4832C10.0981 8.95185 8.76145 7.8773 7.20827 7.42158C7.9634 7.02206 8.56723 6.36947 8.92242 5.56905C9.27761 4.76862 9.36345 3.86701 9.16609 3.0096C8.96874 2.15219 8.49969 1.38895 7.83459 0.842946C7.16948 0.296942 6.34708 0 5.5 0C4.65292 0 3.83052 0.296942 3.16541 0.842946C2.50031 1.38895 2.03126 2.15219 1.83391 3.0096C1.63655 3.86701 1.72239 4.76862 2.07758 5.56905C2.43277 6.36947 3.0366 7.02206 3.79173 7.42158C2.23855 7.87674 0.901879 8.95129 0.0504352 10.4832C0.0270557 10.5215 0.0113571 10.5643 0.00428414 10.6091C-0.00278885 10.6538 -0.00109008 10.6996 0.00927808 10.7437C0.0196462 10.7877 0.0384695 10.8292 0.0646157 10.8655C0.0907619 10.9017 0.123691 10.9322 0.161421 10.9549C0.199151 10.9776 0.240903 10.9921 0.284165 10.9975C0.327427 11.003 0.371305 10.9993 0.413159 10.9867C0.455013 10.974 0.493979 10.9527 0.527712 10.924C0.561445 10.8953 0.589247 10.8598 0.609448 10.8196C1.644 8.95914 3.47183 7.84871 5.5 7.84871C7.52817 7.84871 9.356 8.95914 10.3906 10.8196C10.4108 10.8598 10.4386 10.8953 10.4723 10.924C10.506 10.9527 10.545 10.974 10.5868 10.9867C10.6287 10.9993 10.6726 11.003 10.7158 10.9975C10.7591 10.9921 10.8008 10.9776 10.8386 10.9549C10.8763 10.9322 10.9092 10.9017 10.9354 10.8655C10.9615 10.8292 10.9804 10.7877 10.9907 10.7437C11.0011 10.6996 11.0028 10.6538 10.9957 10.6091C10.9886 10.5643 10.9729 10.5215 10.9496 10.4832ZM2.37642 3.92493C2.37642 3.28192 2.55962 2.65335 2.90284 2.1187C3.24606 1.58406 3.7339 1.16735 4.30466 0.921283C4.87542 0.675212 5.50346 0.610829 6.10938 0.736275C6.71529 0.86172 7.27186 1.17136 7.7087 1.62604C8.14554 2.08072 8.44304 2.66001 8.56356 3.29067C8.68408 3.92133 8.62223 4.57502 8.38581 5.16909C8.14939 5.76315 7.74904 6.27091 7.23537 6.62815C6.7217 6.98539 6.11779 7.17606 5.5 7.17606C4.67188 7.17503 3.87797 6.83216 3.2924 6.22268C2.70683 5.6132 2.37742 4.78687 2.37642 3.92493Z" fill="black"/>
<path d="M11.7386 7.7017V4.8892H12.2159V7.7017H11.7386ZM10.571 6.53409V6.05682H13.3835V6.53409H10.571Z" fill="black"/>
</svg>
