<svg width="16" height="10" viewBox="0 0 16 10" fill="none" xmlns="http://www.w3.org/2000/svg">
<path d="M6.77286 6.77864C7.46923 6.38394 8.01538 5.76984 8.3261 5.03216C8.63682 4.29448 8.69464 3.47469 8.49054 2.7007C8.28644 1.9267 7.8319 1.24203 7.19783 0.753483C6.56376 0.264938 5.78581 0 4.98536 0C4.18491 0 3.40696 0.264938 2.77289 0.753483C2.13882 1.24203 1.68428 1.9267 1.48018 2.7007C1.27608 3.47469 1.3339 4.29448 1.64462 5.03216C1.95534 5.76984 2.50149 6.38394 3.19786 6.77864C1.90722 7.19011 0.798827 8.0357 0.060986 9.17177C0.00661657 9.25506 -0.0124373 9.35654 0.00801584 9.45389C0.028469 9.55123 0.0867539 9.63646 0.170048 9.69083C0.253343 9.7452 0.354824 9.76426 0.452167 9.7438C0.54951 9.72335 0.634742 9.66506 0.689111 9.58177C1.15449 8.86623 1.79122 8.27826 2.54148 7.87124C3.29175 7.46421 4.1318 7.25102 4.98536 7.25102C5.83892 7.25102 6.67897 7.46421 7.42924 7.87124C8.1795 8.27826 8.81623 8.86623 9.28161 9.58177C9.33952 9.65599 9.42323 9.70571 9.51611 9.72106C9.60898 9.73641 9.70424 9.71627 9.78295 9.66464C9.86167 9.613 9.91808 9.53365 9.94099 9.44234C9.9639 9.35103 9.95163 9.25445 9.90661 9.17177C9.16955 8.03627 8.06235 7.19074 6.77286 6.77864ZM2.11036 3.62677C2.11036 3.05815 2.27898 2.5023 2.59489 2.0295C2.91079 1.55671 3.35981 1.18822 3.88515 0.970615C4.41048 0.753013 4.98855 0.696079 5.54625 0.807011C6.10394 0.917944 6.61622 1.19176 7.01829 1.59384C7.42037 1.99591 7.69419 2.50819 7.80512 3.06588C7.91605 3.62358 7.85912 4.20165 7.64151 4.72698C7.42391 5.25232 7.05542 5.70134 6.58263 6.01724C6.10983 6.33315 5.55398 6.50177 4.98536 6.50177C4.22317 6.50078 3.49248 6.19756 2.95352 5.65861C2.41457 5.11965 2.11135 4.38896 2.11036 3.62677ZM15.2979 9.68927C15.2146 9.74358 15.1132 9.76264 15.016 9.74224C14.9187 9.72185 14.8335 9.66368 14.7791 9.58052C14.3146 8.86491 13.6783 8.27694 12.9283 7.87019C12.1784 7.46344 11.3385 7.25084 10.4854 7.25177C10.3859 7.25177 10.2905 7.21226 10.2202 7.14193C10.1499 7.07161 10.1104 6.97623 10.1104 6.87677C10.1104 6.77731 10.1499 6.68193 10.2202 6.6116C10.2905 6.54128 10.3859 6.50177 10.4854 6.50177C10.9087 6.50134 11.3268 6.40742 11.7096 6.22671C12.0925 6.046 12.4307 5.78296 12.7001 5.45639C12.9696 5.12982 13.1635 4.74778 13.2682 4.33756C13.3729 3.92734 13.3857 3.49906 13.3056 3.08333C13.2256 2.66759 13.0548 2.27467 12.8053 1.93261C12.5558 1.59056 12.2339 1.30783 11.8625 1.10462C11.491 0.901403 11.0793 0.782724 10.6568 0.757058C10.2342 0.731392 9.81113 0.799373 9.41786 0.956144C9.37206 0.974897 9.323 0.984399 9.27351 0.984102C9.22402 0.983804 9.17507 0.973712 9.1295 0.954408C9.08393 0.935104 9.04263 0.90697 9.00798 0.871628C8.97333 0.836285 8.94602 0.794435 8.92763 0.748488C8.90923 0.702541 8.90012 0.653407 8.9008 0.60392C8.90149 0.554432 8.91196 0.505569 8.93162 0.460149C8.95128 0.414729 8.97973 0.37365 9.01535 0.33928C9.05096 0.30491 9.09302 0.277929 9.13911 0.259894C9.99212 -0.0801851 10.9424 -0.0838482 11.798 0.249645C12.6536 0.583138 13.3508 1.22893 13.7487 2.05657C14.1465 2.88421 14.2155 3.832 13.9415 4.7085C13.6676 5.585 13.0712 6.32486 12.2729 6.77864C13.5635 7.19011 14.6719 8.0357 15.4097 9.17177C15.4634 9.25528 15.4817 9.35663 15.4607 9.45364C15.4398 9.55064 15.3812 9.63537 15.2979 9.68927Z" fill="black"/>
</svg>
