<svg width="17" height="18" viewBox="0 0 17 18" fill="none" xmlns="http://www.w3.org/2000/svg">
<path d="M16.8281 13.3277C16.3162 12.4676 15.5556 10.0421 15.5556 6.88722C15.5556 5.06061 14.8123 3.30882 13.4893 2.01722C12.1663 0.725616 10.3719 0 8.5009 0C6.62989 0 4.83551 0.725616 3.51251 2.01722C2.1895 3.30882 1.44625 5.06061 1.44625 6.88722C1.44625 10.043 0.684707 12.4676 0.172792 13.3277C0.0604741 13.5154 0.000875299 13.7288 9.56802e-06 13.9462C-0.000856163 14.1637 0.0570421 14.3775 0.167862 14.5661C0.278681 14.7547 0.438501 14.9115 0.631193 15.0205C0.823886 15.1296 1.04263 15.1871 1.26536 15.1872H5.10743C5.23924 15.9726 5.6527 16.6866 6.27398 17.2019C6.89526 17.7171 7.68391 18 8.49909 18C9.31428 18 10.1029 17.7171 10.7242 17.2019C11.3455 16.6866 11.7589 15.9726 11.8908 15.1872H15.7364C15.959 15.1867 16.1775 15.129 16.37 15.0198C16.5624 14.9107 16.722 14.7539 16.8326 14.5653C16.9432 14.3768 17.0009 14.1631 17 13.9458C16.999 13.7285 16.9394 13.5153 16.8272 13.3277H16.8281ZM8.5009 16.9532C7.97172 16.953 7.45806 16.7786 7.04298 16.4581C6.62791 16.1377 6.33569 15.6899 6.21357 15.1872H10.7882C10.6661 15.6899 10.3739 16.1377 9.95882 16.4581C9.54375 16.7786 9.03009 16.953 8.5009 16.9532ZM15.8911 14.0393C15.8762 14.0664 15.854 14.0889 15.8269 14.1045C15.7998 14.12 15.7688 14.1281 15.7374 14.1276H1.26536C1.23391 14.1281 1.20294 14.12 1.17583 14.1045C1.14872 14.0889 1.1265 14.0664 1.1116 14.0393C1.09573 14.0125 1.08737 13.982 1.08737 13.951C1.08737 13.92 1.09573 13.8896 1.1116 13.8627C1.79627 12.7149 2.53158 10.0386 2.53158 6.88722C2.53158 5.34163 3.16049 3.85935 4.27995 2.76645C5.39942 1.67355 6.91774 1.05957 8.5009 1.05957C10.0841 1.05957 11.6024 1.67355 12.7219 2.76645C13.8413 3.85935 14.4702 5.34163 14.4702 6.88722C14.4702 10.0377 15.2064 12.7104 15.8911 13.8627C15.907 13.8896 15.9153 13.92 15.9153 13.951C15.9153 13.982 15.907 14.0125 15.8911 14.0393Z" fill="black"/>
</svg>
