<svg width="20" height="20" viewBox="0 0 20 20" fill="none" xmlns="http://www.w3.org/2000/svg">
<path d="M7.86 1.65C7.88479 1.40334 8.00032 1.17467 8.18417 1.00838C8.36802 0.842077 8.60709 0.749997 8.855 0.75H10.645C10.8929 0.749997 11.132 0.842077 11.3158 1.00838C11.4997 1.17467 11.6152 1.40334 11.64 1.65L11.673 1.983C12.451 2.17562 13.1957 2.48406 13.882 2.898L14.141 2.686C14.3329 2.52908 14.5763 2.44905 14.8239 2.46143C15.0715 2.47381 15.3057 2.57772 15.481 2.753L16.747 4.019C16.9223 4.19432 17.0262 4.42849 17.0386 4.6761C17.051 4.9237 16.9709 5.16707 16.814 5.359L16.602 5.619C17.011 6.295 17.322 7.038 17.517 7.827L17.849 7.86C18.0958 7.88456 18.3247 7.99999 18.4913 8.18386C18.6578 8.36774 18.75 8.60694 18.75 8.855V10.645C18.75 10.8929 18.6579 11.132 18.4916 11.3158C18.3253 11.4997 18.0967 11.6152 17.85 11.64L17.517 11.673C17.3244 12.451 17.0159 13.1957 16.602 13.882L16.814 14.141C16.9709 14.3329 17.051 14.5763 17.0386 14.8239C17.0262 15.0715 16.9223 15.3057 16.747 15.481L15.481 16.747C15.3057 16.9223 15.0715 17.0262 14.8239 17.0386C14.5763 17.051 14.3329 16.9709 14.141 16.814L13.881 16.602C13.195 17.0158 12.4507 17.3243 11.673 17.517L11.64 17.849C11.6154 18.0958 11.5 18.3247 11.3161 18.4913C11.1323 18.6578 10.8931 18.75 10.645 18.75H8.855C8.60709 18.75 8.36802 18.6579 8.18417 18.4916C8.00032 18.3253 7.88479 18.0967 7.86 17.85L7.827 17.517C7.04899 17.3244 6.30434 17.0159 5.618 16.602L5.359 16.814C5.16707 16.9709 4.9237 17.051 4.6761 17.0386C4.42849 17.0262 4.19432 16.9223 4.019 16.747L2.753 15.48C2.57772 15.3047 2.47381 15.0705 2.46143 14.8229C2.44905 14.5753 2.52908 14.3319 2.686 14.14L2.898 13.88C2.48416 13.194 2.17572 12.4497 1.983 11.672L1.65 11.64C1.40334 11.6152 1.17467 11.4997 1.00838 11.3158C0.842077 11.132 0.749997 10.8929 0.75 10.645V8.855C0.749997 8.60709 0.842077 8.36802 1.00838 8.18417C1.17467 8.00032 1.40334 7.88479 1.65 7.86L1.983 7.827C2.17562 7.04899 2.48406 6.30434 2.898 5.618L2.686 5.359C2.52908 5.16707 2.44905 4.9237 2.46143 4.6761C2.47381 4.42849 2.57772 4.19432 2.753 4.019L4.02 2.753C4.19532 2.57772 4.42949 2.47381 4.6771 2.46143C4.9247 2.44905 5.16807 2.52908 5.36 2.686L5.62 2.898C6.30603 2.48416 7.05033 2.17572 7.828 1.983L7.86 1.65Z" stroke="black" stroke-width="1.5" stroke-linecap="round" stroke-linejoin="round"/>
<path d="M12.25 9.75C12.25 9.08696 11.9866 8.45107 11.5178 7.98223C11.0489 7.51339 10.413 7.25 9.75 7.25C9.08696 7.25 8.45107 7.51339 7.98223 7.98223C7.51339 8.45107 7.25 9.08696 7.25 9.75C7.25 10.413 7.51339 11.0489 7.98223 11.5178C8.45107 11.9866 9.08696 12.25 9.75 12.25C10.413 12.25 11.0489 11.9866 11.5178 11.5178C11.9866 11.0489 12.25 10.413 12.25 9.75Z" stroke="black" stroke-width="1.5" stroke-linecap="round" stroke-linejoin="round"/>
</svg>
