<svg width="17" height="17" viewBox="0 0 17 17" fill="none" xmlns="http://www.w3.org/2000/svg">
<path d="M16.9221 16.2014C15.6062 13.8347 13.5404 12.174 11.1401 11.4697C12.3071 10.8523 13.2403 9.84372 13.7892 8.60671C14.3381 7.36969 14.4708 5.9763 14.1658 4.65121C13.8608 3.32612 13.1359 2.14656 12.108 1.30273C11.0801 0.458911 9.80913 0 8.5 0C7.19087 0 5.91989 0.458911 4.892 1.30273C3.86412 2.14656 3.13923 3.32612 2.83422 4.65121C2.52922 5.9763 2.66187 7.36969 3.2108 8.60671C3.75973 9.84372 4.69293 10.8523 5.85994 11.4697C3.45958 12.1731 1.39381 13.8338 0.0779454 16.2014C0.0418133 16.2605 0.0175519 16.3267 0.00662095 16.3959C-0.00431004 16.465 -0.00168468 16.5358 0.0143388 16.6039C0.0303624 16.672 0.0594529 16.736 0.0998606 16.7921C0.140268 16.8482 0.191158 16.8951 0.249468 16.9302C0.307779 16.9653 0.372304 16.9878 0.439164 16.9962C0.506023 17.0047 0.573835 16.9989 0.638518 16.9794C0.703202 16.9599 0.763422 16.9269 0.815554 16.8826C0.867687 16.8382 0.910655 16.7833 0.941874 16.7212C2.54072 13.8459 5.36555 12.1298 8.5 12.1298C11.6344 12.1298 14.4593 13.8459 16.0581 16.7212C16.0893 16.7833 16.1323 16.8382 16.1844 16.8826C16.2366 16.9269 16.2968 16.9599 16.3615 16.9794C16.4262 16.9989 16.494 17.0047 16.5608 16.9962C16.6277 16.9878 16.6922 16.9653 16.7505 16.9302C16.8088 16.8951 16.8597 16.8482 16.9001 16.7921C16.9405 16.736 16.9696 16.672 16.9857 16.6039C17.0017 16.5358 17.0043 16.465 16.9934 16.3959C16.9824 16.3267 16.9582 16.2605 16.9221 16.2014ZM3.67265 6.06581C3.67265 5.07206 3.95577 4.10063 4.48621 3.27436C5.01664 2.44809 5.77057 1.80409 6.65265 1.4238C7.53474 1.04351 8.50535 0.944009 9.44177 1.13788C10.3782 1.33175 11.2383 1.81028 11.9134 2.51297C12.5886 3.21565 13.0483 4.11093 13.2346 5.08558C13.4209 6.06023 13.3253 7.07049 12.9599 7.98859C12.5945 8.90669 11.9758 9.69141 11.1819 10.2435C10.3881 10.7956 9.45476 11.0903 8.5 11.0903C7.22018 11.0887 5.99322 10.5588 5.08825 9.61687C4.18329 8.67495 3.6742 7.39789 3.67265 6.06581Z" fill="black"/>
</svg>
